# xmcd
#
# Track frame offsets: 
#        150
#        9299
#        20267
#        31289
#        41219
#        53475
#        64974
#        74006
#        85519
#        94873
#        105837
#        118133
#        129692
#        139456
#        151136
#        162421
#        172525
#        182310
#
# Disc length: 2594 seconds
#
# Revision: 1
# Processed by: cddbd v1.5.2PL0 Copyright (c) Steve Scherf et al.
# Submitted via: ExactAudioCopy v0.99pb4
#
DISCID=df0a2012
DTITLE=Elvis Presley - The Original Hits - CD1
DYEAR=1900
DGENRE=Pop
TTITLE0=Blue Suede Shoes
TTITLE1=I'm Counting On You
TTITLE2=I Got A Woman
TTITLE3=One Sided Love Affair
TTITLE4=I Love You Because
TTITLE5=Just Because
TTITLE6=Tutti Frutti
TTITLE7=Trying To Get To You
TTITLE8=I'm Gonna Sit Right Down and Cry
TTITLE9=I'll Never Let You Go
TTITLE10=Blue Moon
TTITLE11=Money Honey
TTITLE12=Heartbreak Hotel
TTITLE13=I Was The One
TTITLE14=Shake Rattle and Roll
TTITLE15=My Baby Left Me
TTITLE16=Lawdy, Miss Clawdy
TTITLE17=I Want You, I Need You, I Love You
EXTD=
EXTT0=
EXTT1=
EXTT2=
EXTT3=
EXTT4=
EXTT5=
EXTT6=
EXTT7=
EXTT8=
EXTT9=
EXTT10=
EXTT11=
EXTT12=
EXTT13=
EXTT14=
EXTT15=
EXTT16=
EXTT17=
PLAYORDER=
